<?xml version="1.0" encoding="UTF-8" standalone="no"?>
<!-- Created with Inkscape (http://www.inkscape.org/) -->

<svg
   xmlns:dc="http://purl.org/dc/elements/1.1/"
   xmlns:cc="http://creativecommons.org/ns#"
   xmlns:rdf="http://www.w3.org/1999/02/22-rdf-syntax-ns#"
   xmlns:svg="http://www.w3.org/2000/svg"
   xmlns="http://www.w3.org/2000/svg"
   xmlns:sodipodi="http://sodipodi.sourceforge.net/DTD/sodipodi-0.dtd"
   xmlns:inkscape="http://www.inkscape.org/namespaces/inkscape"
   width="30.638596"
   height="40.880592"
   viewBox="0 0 30.638596 40.880593"
   id="svg2"
   version="1.1"
   inkscape:version="0.92.1 r15371"
   sodipodi:docname="centria-ammattikorkeakoulu.svg">
  <sodipodi:namedview
     id="base"
     pagecolor="#ffffff"
     bordercolor="#666666"
     borderopacity="1.0"
     inkscape:pageopacity="0.0"
     inkscape:pageshadow="2"
     inkscape:zoom="16"
     inkscape:cx="24.288668"
     inkscape:cy="16.811927"
     inkscape:document-units="px"
     inkscape:current-layer="layer1"
     showgrid="false"
     units="px"
     inkscape:window-width="1680"
     inkscape:window-height="987"
     inkscape:window-x="1272"
     inkscape:window-y="-8"
     inkscape:window-maximized="1"
     inkscape:pagecheckerboard="false"
     fit-margin-top="0"
     fit-margin-left="0"
     fit-margin-right="0"
     fit-margin-bottom="0">
    <inkscape:grid
       type="xygrid"
       id="grid165"
       originx="6.8307697e-008"
       originy="-9.5538296" />
  </sodipodi:namedview>
  <metadata
     id="metadata7">
    <rdf:RDF>
      <cc:Work
         rdf:about="">
        <dc:format>image/svg+xml</dc:format>
        <dc:type
           rdf:resource="http://purl.org/dc/dcmitype/StillImage" />
        <dc:title></dc:title>
      </cc:Work>
    </rdf:RDF>
  </metadata>
  <g
     inkscape:label="Taso 1"
     inkscape:groupmode="layer"
     id="layer1"
     transform="translate(6.8307696e-8,-1001.9278)">
    <g
       transform="matrix(1.25,0,0,-1.25,-33.767563,1075.7427)"
       id="g3772">
      <g
         id="g3756">
        <g
           id="g20"
           transform="translate(58.586313,48.226024)" />
        <g
           id="g24"
           transform="translate(78.100713,38.653724)" />
        <g
           id="g28"
           transform="translate(98.992613,27.435524)" />
        <g
           id="g32"
           transform="translate(107.15471,42.281024)" />
        <g
           id="g36"
           transform="translate(116.59281,27.435524)" />
        <g
           id="g40"
           transform="translate(129.22211,27.468924)" />
        <g
           id="g44"
           transform="translate(140.70861,35.529924)" />
      </g>
      <g
         id="g3707">
        <g
           id="g48"
           transform="translate(30.414913,22.126425)" />
        <g
           id="g52"
           transform="translate(34.488913,22.546424)" />
        <g
           id="g56"
           transform="translate(43.392113,22.546424)" />
        <g
           id="g60"
           transform="translate(55.025113,22.126425)" />
        <g
           id="g64"
           transform="translate(61.021813,22.126425)" />
        <g
           id="g68"
           transform="translate(66.854613,22.126425)" />
        <g
           id="g74"
           transform="translate(72.910013,22.546424)" />
        <g
           id="g78"
           transform="translate(84.904713,21.360324)" />
        <g
           id="g82"
           transform="translate(90.533713,20.667625)" />
        <g
           id="g86"
           transform="translate(93.485413,22.546424)" />
        <g
           id="g90"
           transform="translate(100.12541,22.546424)" />
        <g
           id="g94"
           transform="translate(108.64851,22.126425)" />
        <g
           id="g98"
           transform="translate(112.76161,22.546424)" />
        <g
           id="g102"
           transform="translate(124.75651,21.360324)" />
        <g
           id="g106"
           transform="translate(126.69721,22.546424)" />
        <g
           id="g110"
           transform="translate(133.69821,22.546424)" />
        <g
           id="g114"
           transform="translate(138.88151,22.546424)" />
      </g>
      <g
         id="g3744">
        <g
           id="g118"
           transform="translate(41.491513,44.904924)">
          <path
             d="m 0,0 c -4.012,-2.04 -7.701,-6.532 -8.447,-10.483 -0.748,-3.953 2.81,-2.59 2.81,-2.59 -2.576,-0.415 -2.171,2.515 -0.043,5.868 2.355,3.707 6.467,5.851 6.467,5.851 0,0 0.896,0.482 0.383,1.218 C 0.937,0.2 0.661,0.285 0,0"
             style="fill:#ed1d24;fill-opacity:1;fill-rule:nonzero;stroke:none"
             id="path120"
             inkscape:connector-curvature="0" />
        </g>
        <g
           id="g122"
           transform="translate(43.563013,54.114024)">
          <path
             d="M 0,0 C -0.413,0.993 0.081,2.139 1.102,2.564 2.122,2.993 3.286,2.535 3.699,1.544 4.111,0.552 3.62,-0.597 2.599,-1.024 1.577,-1.45 0.414,-0.99 0,0"
             style="fill:#ed1d24;fill-opacity:1;fill-rule:nonzero;stroke:none"
             id="path124"
             inkscape:connector-curvature="0" />
        </g>
        <g
           id="g126"
           transform="translate(48.314113,56.779824)">
          <path
             d="M 0,0 C -0.347,0.825 0.069,1.785 0.92,2.138 1.773,2.496 2.742,2.112 3.089,1.287 3.434,0.459 3.021,-0.498 2.168,-0.853 1.317,-1.209 0.343,-0.829 0,0"
             style="fill:#ed1d24;fill-opacity:1;fill-rule:nonzero;stroke:none"
             id="path128"
             inkscape:connector-curvature="0" />
        </g>
        <g
           id="g130"
           transform="translate(38.512813,50.546124)">
          <path
             d="M 0,0 C -0.479,1.143 0.093,2.471 1.27,2.962 2.447,3.452 3.793,2.925 4.267,1.779 4.745,0.634 4.176,-0.694 2.998,-1.183 1.819,-1.676 0.476,-1.147 0,0"
             style="fill:#ed1d24;fill-opacity:1;fill-rule:nonzero;stroke:none"
             id="path132"
             inkscape:connector-curvature="0" />
        </g>
        <g
           id="g134"
           transform="translate(43.524513,27.173825)">
          <path
             d="m 0,0 c 0,0 -8.869,-2.893 -13.909,2.147 -4.56,4.561 -3.262,12.303 4.979,19.858 1.771,1.623 3.496,-0.613 3.496,-0.613 0,0 1.743,-1.72 -0.385,-3.281 C -6.677,17.48 -15.488,9.138 -11.835,4.176 -8.793,0.044 -1.671,1.419 0.044,1.157 0.14,1.143 0.442,1.032 0.541,0.809 0.756,0.322 0.175,0.051 0,0"
             style="fill:#ed1d24;fill-opacity:1;fill-rule:nonzero;stroke:none"
             id="path136"
             inkscape:connector-curvature="0" />
        </g>
      </g>
    </g>
  </g>
</svg>
